HIERARCHY
ROOT Hips
{
	OFFSET -3.958830 18.904000 13.208200
	CHANNELS 6 Xposition Yposition Zposition Zrotation Yrotation Xrotation 
	JOINT LHipJoint
	{
		OFFSET 0.000000 0.000000 0.000000
		CHANNELS 3 Zrotation Yrotation Xrotation
		JOINT LeftUpLeg
		{
			OFFSET 1.800000 -1.400000 0.085000
			CHANNELS 3 Zrotation Yrotation Xrotation
			JOINT LeftLeg
			{
				OFFSET 2.215000 -6.000000 0.000000
				CHANNELS 3 Zrotation Yrotation Xrotation
				JOINT LeftFoot
				{
					OFFSET 2.500000 -6.900000 0.000000
					CHANNELS 3 Zrotation Yrotation Xrotation
					JOINT LeftToeBase
					{
						OFFSET 0.200000 -0.500000 1.950000
						CHANNELS 3 Zrotation Yrotation Xrotation
						End Site
						{
							OFFSET 0.000000 0.000000 0.000000
						}
					}
				}
			}
		}
	}
	JOINT RHipJoint
	{
		OFFSET 0.000000 0.000000 0.000000
		CHANNELS 3 Zrotation Yrotation Xrotation
		JOINT RightUpLeg
		{
			OFFSET -1.800000 -1.400000 0.085000
			CHANNELS 3 Zrotation Yrotation Xrotation
			JOINT RightLeg
			{
				OFFSET -2.215000 -6.000000 0.000000
				CHANNELS 3 Zrotation Yrotation Xrotation
				JOINT RightFoot
				{
					OFFSET -2.500000 -6.900000 0.000000
					CHANNELS 3 Zrotation Yrotation Xrotation
					JOINT RightToeBase
					{
						OFFSET -0.200000 -0.500000 1.950000
						CHANNELS 3 Zrotation Yrotation Xrotation
						End Site
						{
							OFFSET 0.000000 0.000000 0.000000
						}
					}
				}
			}
		}
	}
	JOINT LowerBack
	{
		OFFSET 0.000000 0.000000 0.000000
		CHANNELS 3 Zrotation Yrotation Xrotation
		JOINT Spine
		{
			OFFSET -0.087000 1.940000 -0.288900
			CHANNELS 3 Zrotation Yrotation Xrotation
			JOINT Spine1
			{
				OFFSET 0.000000 1.950000 0.060000
				CHANNELS 3 Zrotation Yrotation Xrotation
				JOINT Neck
				{
					OFFSET 0.000000 0.000000 0.000000
					CHANNELS 3 Zrotation Yrotation Xrotation
					JOINT Neck1
					{
						OFFSET 0.000000 1.600000 0.340000
						CHANNELS 3 Zrotation Yrotation Xrotation
						JOINT Head
						{
							OFFSET 0.000000 1.667000 -0.240000
							CHANNELS 3 Zrotation Yrotation Xrotation
							End Site
							{
								OFFSET 0.000000 0.000000 0.000000
							}
						}
					}
				}
				JOINT LeftShoulder
				{
					OFFSET 0.000000 0.000000 0.000000
					CHANNELS 3 Zrotation Yrotation Xrotation
					JOINT LeftArm
					{
						OFFSET 2.700000 1.550000 -0.730000
						CHANNELS 3 Zrotation Yrotation Xrotation
						JOINT LeftForeArm
						{
							OFFSET 5.450000 0.000000 0.000000
							CHANNELS 3 Zrotation Yrotation Xrotation
							JOINT LeftHand
							{
								OFFSET 3.450000 0.000000 0.000000
								CHANNELS 3 Zrotation Yrotation Xrotation
								JOINT LeftHandIndex1
								{
									OFFSET 0.750000 0.000000 0.000000
									CHANNELS 3 Zrotation Yrotation Xrotation
									End Site
									{
										OFFSET 0.000000 0.000000 0.000000
									}
								}
							}
						}
					}
				}
				JOINT RightShoulder
				{
					OFFSET 0.000000 0.000000 0.000000
					CHANNELS 3 Zrotation Yrotation Xrotation
					JOINT RightArm
					{
						OFFSET -2.700000 1.550000 -0.730000
						CHANNELS 3 Zrotation Yrotation Xrotation
						JOINT RightForeArm
						{
							OFFSET -5.450000 0.000000 0.000000
							CHANNELS 3 Zrotation Yrotation Xrotation
							JOINT RightHand
							{
								OFFSET -3.450000 0.000000 0.000000
								CHANNELS 3 Zrotation Yrotation Xrotation
								JOINT RightHandIndex1
								{
									OFFSET -0.750000 0.000000 0.000000
									CHANNELS 3 Zrotation Yrotation Xrotation
									End Site
									{
										OFFSET 0.000000 0.000000 0.000000
									}
								}
							}
						}
					}
				}
			}
		}
	}
}
MOTION
Frames: 8
Frame Time: 0.016667
0.518210 16.655650 -0.741360 -8.825686 -3.518647 2.319012 -14.793177 13.908305 3.042390 22.044387 -0.771896 -9.574482 -0.698883 4.666455 6.015202 -0.638921 4.940769 2.985403 -0.654350 -1.133540 -0.489110 18.419272 -10.601136 3.103130 -0.340141 1.335507 -10.983653 8.244018 -5.192403 7.938848 -0.170021 -3.022715 3.476822 -0.637720 0.712300 0.227500 -4.242744 -2.690325 -8.107509 21.836423 -0.369247 2.082553 -6.550384 0.665687 -7.670217 4.398593 0.443532 -15.830807 -2.286362 1.957323 60.803574 -7.764570 4.059640 7.382470 -18.841356 -3.430332 7.093949 -55.199386 15.440348 -6.994993 -38.798332 -18.569698 2.341899 -3.918757 2.403497 1.020980 0.203770 -0.040760 0.056480 8.520465 5.350009 10.584043 75.308432 -9.788672 -18.988537 1.867006 35.869336 -1.862946 1.952173 -0.555258 -0.682300 0.485230 0.706470 -0.152320 
0.515150 16.656570 -0.746340 -8.618381 -3.576443 1.938455 -14.803168 13.941092 3.031129 21.920849 -0.738059 -9.254786 -0.656924 4.677855 6.103635 -0.641607 4.949283 2.982079 -0.640550 -1.114680 -0.480360 18.405576 -10.607975 3.091619 -0.605509 1.244384 -10.678064 8.261480 -5.232845 7.988268 -0.184620 -3.045729 3.466157 -0.626760 0.705400 0.226980 -4.207077 -2.744217 -8.101278 21.467119 -0.502994 2.299655 -6.250832 0.523033 -7.037719 4.311294 0.275203 -16.045494 -2.903582 2.331107 61.464341 -7.393170 3.939060 6.838780 -18.862045 -4.308348 7.339336 -54.921561 14.757981 -6.816866 -39.746393 -18.894632 2.551430 -3.909367 2.413664 1.029760 0.195590 -0.029840 0.057560 8.864827 6.189920 10.720909 75.018474 -9.416062 -19.096681 1.434351 36.159986 -2.059564 1.944744 -0.555024 -0.679970 0.492930 0.701980 -0.153070 
0.514860 16.656540 -0.755540 -8.619481 -3.781945 1.358737 -14.805781 13.948740 3.021582 22.083010 -0.680762 -8.650973 -0.714504 4.750363 6.135126 -0.643879 5.018560 2.955644 -0.634550 -1.098840 -0.481530 18.409581 -10.595871 3.067176 -0.799850 1.130220 -10.221425 8.435820 -5.341451 8.179564 -0.202434 -3.096235 3.444649 -0.612150 0.702490 0.222530 -4.207886 -2.792428 -8.069640 21.636727 -0.615696 2.554096 -6.122106 0.371378 -5.705345 4.229105 -0.002269 -16.393629 -3.903890 2.786447 62.199754 -7.137090 3.688260 6.046790 -18.778711 -5.923427 7.752460 -54.775000 13.290929 -6.576361 -40.783038 -19.776895 2.928240 -3.906816 2.419226 1.038640 0.189300 -0.022080 0.053940 9.089031 7.787119 11.039354 74.935729 -8.538742 -19.223948 0.521190 36.366644 -2.446772 1.929765 -0.551087 -0.683500 0.510870 0.709210 -0.153970 
0.512510 16.659070 -0.774400 -8.411959 -4.140046 0.455986 -14.818870 13.980054 3.001821 21.984364 -0.607617 -7.696457 -0.598808 4.766975 6.087117 -0.647719 5.068508 2.940146 -0.605280 -1.055500 -0.470960 18.398115 -10.613393 3.031212 -1.127418 0.982005 -9.661581 8.340238 -5.459560 8.643569 -0.229969 -3.155349 3.423518 -0.584700 0.693020 0.225370 -4.166085 -2.835863 -8.032205 21.254214 -0.769952 3.091606 -5.617450 0.160080 -3.898759 4.079742 -0.276417 -16.799401 -5.029314 3.433985 63.240118 -6.602300 3.441150 4.711660 -18.809548 -8.143585 8.290069 -54.372449 11.177394 -6.225786 -42.188251 -21.013034 3.465498 -3.898278 2.434279 1.053030 0.180880 -0.003470 0.058100 9.678514 9.878499 11.322962 74.379926 -7.222703 -19.123304 -0.874911 36.191642 -2.966488 1.910671 -0.550375 -0.677900 0.528360 0.704120 -0.155040 
0.513310 16.668430 -0.801240 -8.354962 -4.977687 -0.701497 -14.817132 13.995738 2.968144 22.039789 -0.510959 -6.279843 -0.390512 4.812331 6.052716 -0.651026 5.156131 2.906837 -0.563140 -0.992710 -0.451960 18.410911 -10.626720 2.987724 -1.296893 0.808358 -8.948489 8.148190 -5.579972 9.210946 -0.269744 -3.219230 3.388578 -0.544200 0.671580 0.223830 -4.173949 -2.853592 -7.951623 21.473075 -0.951638 3.804929 -5.455272 -0.092914 -1.525191 3.929741 -0.827995 -17.199411 -6.909689 4.503464 64.605115 -5.833040 3.124270 2.693520 -18.865788 -10.634560 8.823626 -53.858941 8.409594 -5.837487 -43.470641 -22.987747 4.233809 -3.879463 2.449133 1.075420 0.158420 0.024190 0.058680 10.284566 12.400639 11.634826 73.612401 -5.275098 -18.777911 -2.560516 35.783694 -3.569208 1.895278 -0.547299 -0.671190 0.551530 0.698020 -0.157670 
0.511740 16.673890 -0.834630 -8.326921 -5.850662 -2.087358 -14.819814 13.968448 2.932918 22.291558 -0.418572 -4.594547 -0.285922 4.904438 5.991533 -0.649525 5.279186 2.863884 -0.495070 -0.904810 -0.407570 18.430910 -10.641103 2.932956 -1.405567 0.587710 -8.052155 7.831758 -5.683739 9.770349 -0.323408 -3.298655 3.344287 -0.487700 0.634070 0.221280 -4.187802 -2.805884 -7.849384 21.616782 -1.084380 4.680057 -5.244826 -0.368000 1.426213 3.781396 -1.331572 -17.426906 -8.812280 5.487223 65.411409 -5.383120 2.909100 -0.034010 -18.766668 -13.371913 9.257094 -52.995117 4.616708 -5.205182 -44.844263 -25.570398 5.331451 -3.846044 2.473336 1.102490 0.126190 0.060070 0.065920 10.761541 15.016905 11.883813 72.713711 -2.858831 -18.231091 -4.394087 35.087378 -4.184677 1.883593 -0.559899 -0.662350 0.572270 0.671210 -0.165710 
0.508390 16.679030 -0.858470 -8.041728 -6.158383 -3.442155 -14.827981 13.912591 2.903949 22.315537 -0.399423 -3.011588 -0.244215 4.951257 5.709745 -0.649925 5.397726 2.829957 -0.447750 -0.847800 -0.378500 18.447851 -10.667776 2.867506 -1.765686 0.312634 -7.137985 7.585822 -5.813063 10.218759 -0.363814 -3.410559 3.292824 -0.443930 0.622290 0.227780 -4.199808 -2.717345 -7.742483 21.202554 -1.164655 5.195925 -4.887032 -0.702561 4.459983 3.472003 -1.592281 -17.614394 -10.151650 6.047779 65.619188 -4.916890 2.523280 -1.644070 -18.484016 -16.114278 9.747040 -52.112596 0.641200 -4.656701 -45.833661 -29.718238 6.981082 -3.836906 2.499766 1.112020 0.117490 0.074490 0.070880 11.343363 17.346370 12.159508 71.932480 -0.866927 -17.956885 -6.360367 34.732037 -4.862743 1.859202 -0.581043 -0.657590 0.588170 0.660020 -0.170430 
0.507540 16.679600 -0.882520 -7.740934 -6.093200 -4.962434 -14.843029 13.870403 2.842608 22.389434 -0.369242 -1.700135 -0.072274 5.022038 5.905261 -0.672922 5.512922 2.799353 -0.407680 -0.800140 -0.358560 18.458267 -10.703028 2.807894 -2.226535 -0.058995 -5.929118 7.409196 -5.979904 10.512705 -0.410423 -3.560453 3.234452 -0.398880 0.625030 0.232460 -4.197183 -2.638400 -7.631655 20.523565 -1.250822 5.979856 -4.316062 -1.029145 7.666081 3.007428 -1.619798 -17.565762 -10.896611 6.153205 65.008277 -4.220870 1.978590 -3.650110 -17.491005 -18.644824 10.092144 -51.547706 -4.336297 -3.972367 -46.480509 -35.725010 9.348649 -3.833069 2.518635 1.127860 0.115770 0.081280 0.080230 11.495259 19.143401 12.302735 71.261458 1.183197 -17.864388 -8.199026 34.904670 -5.579231 1.819085 -0.602642 -0.667650 0.615260 0.654710 -0.177370 
